<?xml version="1.0" standalone="no"?><!DOCTYPE svg PUBLIC "-//W3C//DTD SVG 1.1//EN" "http://www.w3.org/Graphics/SVG/1.1/DTD/svg11.dtd"><svg t="1746630086557" class="icon" viewBox="0 0 1024 1024" version="1.1" xmlns="http://www.w3.org/2000/svg" p-id="4074" xmlns:xlink="http://www.w3.org/1999/xlink" width="200" height="200"><path d="M866.4 785.3l-1.4-2.5c-8.2-14.1-20-25-34.6-32.1-27.2-13.5-55.6-14.5-82 0.8l-4.1 2.3c-10.8 6.1-20 14.1-27 24.3-20.3 29.7-22.7 62.4-4.7 93.7l1.8 3.1c7.6 13.1 17.8 23.9 31.1 31.1 28 15.1 57.9 17.4 85.9 1.2l2.5-1.4c7.6-4.3 9.4-12.1 5.5-19.8-1.6-3.3-4.7-5.5-8-7.2l-0.8-0.4-0.8-0.2c-5.3-1-19.6 5.3-25.4 7.8-11 2-23.3 2.5-34.2-1.2 19.6-16.8 39.3-34 59.3-50.7 8.8-7.8 18-16.2 27.2-23.3 7.9-6.3 15.7-15.3 9.7-25.5z m-55.6 25c-21.9 19-44 37.8-65.9 56.7-2-2.5-4.1-5.1-5.5-8-4.9-7.8-7.6-16.8-7.8-26-0.8-23.5 8-42.3 28.4-54.2 15.5-9 32.5-11.3 49.5-4.7 8.4 3.3 18.4 8.6 24.3 16.2-7.2 6.9-15.4 13.4-23 20zM980.6 742.8h2.9c8.8 0 14.7 5.9 14.7 14.7 0 12.3-11.7 15.3-21.9 15.3-13.3 0-26 8-35.2 17-11.5 11.3-16.4 25.8-16.4 41.5v71.6c0 8.2-5.1 14.7-13.7 14.7h-2.3c-8.6 0-13.7-6.5-13.7-14.7v-75.7c0-29 14.1-52.8 37.8-69.5 14.4-9.6 30.6-14.9 47.8-14.9zM611.8 793.7c11.5-11.5 23.1-22.9 34.8-34.4 3.3-3.1 15.5-16.6 20.5-16.6h5.3l0.6 0.2c6.8 1.4 11.9 5.7 11.9 12.9v2.9c0 4.9-5.7 10.6-9 14.1-6.8 7.2-13.9 14.1-20.9 21.3l-35.8 36.2c15.3 15.3 30.7 30.9 46 46.4 4.3 4.3 8.4 8.6 12.7 12.9 1.4 1.6 3.7 3.5 4.9 5.5 1.2 2 2 4.3 2 6.8v3.1l-0.2 0.6c-1.6 6.8-5.9 12.3-13.5 12.3h-2.5c-4.9 0-10.4-5.5-13.7-8.8-7-6.5-13.5-13.3-20.5-20l-22.7-22.3v35.6c0 8.2-5.1 14.7-13.7 14.7h-2.3c-8.6 0-13.7-6.5-13.7-14.7v-201c0-8.2 5.1-14.7 13.7-14.7h2.3c8.6 0 13.7 6.5 13.7 14.7v92.3zM515.9 773.6c-4.5-2-12.9-2.9-17.6-3.1-24.8-1-42.5 13.1-53.2 34.8-3.7 7.6-5.3 15.5-5.3 23.7 0 25.4 13.3 43.2 36 54 8.2 3.9 19 4.7 28 4.7 8 0 19.2-4.9 26.2-8.2l1.2-0.6h5.5l0.6 0.2c6.8 1.4 11.9 5.7 11.9 12.9v2.9c0 18-32.9 22.1-45.4 23.1-44.4 3.1-77.5-21.3-90.2-63.6-2.3-7.4-3.3-14.7-3.3-22.3v-5.9c0-32.1 16-57.5 43.4-73.8 12.9-7.6 27-11.5 41.7-11.5h5.9c15.8 0 30.3 4.5 43.4 13.3l1 0.8 0.6 1c1.4 2.3 2.7 5.1 2.7 7.8v2.9c0 7.6-5.7 11.7-12.5 12.9H534c-4.2 0.4-14.3-4.1-18.1-6zM382.7 788.4c-16.6-30.1-42.5-46.6-76.9-46.6h-4.1c-14.9 0-29 3.7-41.9 11.7-27.4 16.4-43.4 41.7-43.4 73.8v5.9c0 14.7 3.9 28.8 11.5 41.7 16.2 27.4 41.7 43.4 73.8 43.4h5.9c14.7 0 28.8-3.9 41.7-11.5 27.8-16.2 43.6-41.7 43.6-73.8v-6c0-13.7-3.7-26.6-10.2-38.6z m-27.4 70.1c-11.5 18.8-27.8 30.1-50.1 30.1-10.4 0-20.3-2.5-29.3-8-19-11.7-30.1-28.2-30.1-50.7 0-8.4 1.6-16.4 5.5-23.9 10.8-22.3 28.6-34.8 53.4-34.8 11.2 0 21.9 3.3 31.3 9.6 17.2 11.7 27.2 27.6 27.2 48.5 0.1 10.4-2.4 20.2-7.9 29.2zM185.5 686.5H183c-8.6 0-13.7 6.5-13.7 14.7v62.6c-15.5-13.7-34-22.1-55.8-22.1h-5.9c-14.7 0-28.8 3.9-41.7 11.5-27.4 16.2-43.4 41.7-43.4 73.8v5.9c0 14.7 3.9 28.8 11.5 41.7C50.2 902 75.7 918 107.8 918h6.1c14.7 0 28.8-3.9 41.7-11.5 27.6-16.2 43.6-41.7 43.6-73.8V701.2c0-8.1-5.1-14.7-13.7-14.7z m-23.9 172c-11.7 19.4-28.6 30.1-51.3 30.1-9.4 0-18.4-2.5-26.6-7-20.3-11.2-31.5-28.6-31.5-51.7 0-8.4 1.6-16.4 5.3-23.9 10.8-22.3 28.6-34.8 53.4-34.8 12.1 0 23.1 3.5 32.9 10.6 16.2 11.7 25.8 27.4 25.8 47.5 0 10.4-2.7 20.2-8 29.2z" fill="#FFFFFF" p-id="4075"></path><path d="M585.2 273.9h87.3v89.2h44.2c20.5 0 41.3-3.7 60.8-10.2 9.4-3.3 20-7.8 29.5-13.3-12.3-16.2-18.6-36.4-20.5-56.5-2.5-27.2 3.1-62.8 21.5-84.1l9.2-10.6 10.8 8.8c27.6 22.1 50.7 53 54.8 88.4 33.1-9.8 72-7.4 101.3 9.4l12.1 7-6.3 12.3c-24.8 48.3-76.5 63.2-127 60.5C787.1 563.2 622.6 652.3 423 652.3c-103.1 0-197.8-38.5-251.6-130.1l-0.8-1.4-7.8-16c-18.2-40.3-24.3-84.5-20.3-128.5l1.2-13.3h74.7v-89.2h87.3v-87.3h174.7V99.3h104.7v174.6z" fill="#394D54" p-id="4076"></path><path d="M868.1 306.9c5.9-45.4-28.2-81.2-49.3-98.2-24.3 28.2-28 101.9 10 133-21.3 19-66.3 36-112.1 36H156.9c-4.5 48.1 3.9 92.2 23.1 130.1l6.3 11.7c4.1 6.8 8.4 13.5 13.3 19.8 22.9 1.4 44.2 2 63.6 1.6 38-0.8 69.3-5.3 92.9-13.5 3.5-1.2 7.4 0.6 8.6 4.1 1.2 3.5-0.6 7.4-4.1 8.6-3.1 1-6.3 2-9.8 3.1-18.6 5.3-38.5 8.8-64.2 10.4 1.4 0-1.6 0.2-1.6 0.2-0.8 0-2 0.2-2.9 0.2-10 0.6-21.1 0.6-32.1 0.6-12.3 0-24.1-0.2-37.6-0.8l-0.4 0.2c46.6 52.4 119.5 83.9 210.9 83.9 193.5 0 357.5-85.7 430.2-278.2 51.5 5.3 101-7.8 123.5-51.7-35.7-21-81.9-14.4-108.5-1.1z m0 0" fill="#00AADA" p-id="4077"></path><path d="M868.1 306.9c5.9-45.4-28.2-81.2-49.3-98.2-24.3 28.2-28 101.9 10 133-21.3 19-66.3 36-112.1 36H190c-2.3 73.4 25 129.3 73.2 163 38-0.8 69.3-5.3 92.9-13.5 3.5-1.2 7.4 0.6 8.6 4.1 1.2 3.5-0.6 7.4-4.1 8.6-3.1 1-6.3 2-9.8 3.1-18.6 5.3-40.3 9.4-65.9 10.8l-0.6-0.6c65.9 33.8 161.4 33.8 270.8-8.4 122.7-47 236.9-137 316.6-239.7-1.4 0.8-2.4 1.4-3.6 1.8z m0 0" fill="#24B8EB" p-id="4078"></path><path d="M158.1 436.1c3.5 25.8 11 49.7 22.1 71.8l6.3 11.7c4.1 6.8 8.4 13.5 13.3 19.8 23.1 1.4 44.2 2 63.6 1.6 38-0.8 69.3-5.3 92.9-13.5 3.5-1.2 7.4 0.6 8.6 4.1 1.2 3.5-0.6 7.4-4.1 8.6-3.1 1-6.3 2-9.8 3.1-18.6 5.3-40.1 9-65.9 10.6-0.8 0-2.5 0-3.3 0.2-10 0.6-20.9 0.8-32.1 0.8-12.3 0-24.8-0.2-38-0.8 46.6 52.4 120.1 83.9 211.5 83.9 165.7 0 309.7-62.8 393.3-201.7H158.1v-0.2z m0 0" fill="#008BB8" p-id="4079"></path><path d="M195.1 436.1c9.8 45.2 33.8 80.6 68.3 104.7 38-0.8 69.3-5.3 92.9-13.5 3.5-1.2 7.4 0.6 8.6 4.1 1.2 3.5-0.6 7.4-4.1 8.6-3.1 1-6.3 2-9.8 3.1-18.6 5.3-40.5 9-66.3 10.6 65.9 33.8 161 33.3 270.4-8.8 66.3-25.4 129.9-63.2 187.2-108.8H195.1z m0 0" fill="#039BC6" p-id="4080"></path><path d="M296.4 294.8h5.9v63h-5.9v-63z m-11.5 0h6.1v63h-6.1v-63z m-11.4 0h6.1v63h-6.1v-63z m-11.5 0h6.1v63H262v-63z m-11.4 0h6.1v63h-6.1v-63z m-11.3 0h5.9v63h-5.9v-63z m-6.3-6.3h75.7v75.7H233v-75.7z m150.7-81h5.9v63h-5.9v-63z m-11.4 0h6.1v63h-6.1v-63z m-11.5 0h6.1v63h-6.1v-63z m-11.4 0h6.1v63h-6.1v-63z m-11.5 0h6.1v63h-6.1v-63z m-11.3 0h5.9v63h-5.9v-63z m-6.3-6.4H396v75.7h-75.7v-75.7z m0 0" fill="#00ACD3" p-id="4081"></path><path d="M383.7 294.8h5.9v63h-5.9v-63z m-11.4 0h6.1v63h-6.1v-63z m-11.5 0h6.1v63h-6.1v-63z m-11.4 0h6.1v63h-6.1v-63z m-11.5 0h6.1v63h-6.1v-63z m-11.3 0h5.9v63h-5.9v-63z m-6.3-6.3H396v75.7h-75.7v-75.7z m0 0" fill="#20C2EF" p-id="4082"></path><path d="M471.1 294.8h5.9v63h-5.9v-63z m-11.5 0h6.1v63h-6.1v-63z m-11.5 0h6.1v63h-6.1v-63z m-11.4 0h6.1v63h-6.1v-63z m-11.7 0h6.1v63H425v-63z m-11 0h5.9v63H414v-63z m-6.4-6.3h75.7v75.7h-75.7v-75.7z m0 0" fill="#00ACD3" p-id="4083"></path><path d="M471.1 207.5h5.9v63h-5.9v-63z m-11.5 0h6.1v63h-6.1v-63z m-11.5 0h6.1v63h-6.1v-63z m-11.4 0h6.1v63h-6.1v-63z m-11.7 0h6.1v63H425v-63z m-11 0h5.9v63H414v-63z m-6.4-6.4h75.7v75.7h-75.7v-75.7z m150.8 93.7h5.9v63h-5.9v-63z m-11.5 0h6.1v63h-6.1v-63z m-11.4 0h6.1v63h-6.1v-63z m-11.7 0h6.1v63h-6.1v-63z m-11.4 0h6.1v63h-6.1v-63z m-11.1 0h5.9v63h-5.9v-63z m-6.3-6.3h75.7v75.7H495v-75.7z m0 0" fill="#20C2EF" p-id="4084"></path><path d="M558.4 207.5h5.9v63h-5.9v-63z m-11.5 0h6.1v63h-6.1v-63z m-11.4 0h6.1v63h-6.1v-63z m-11.7 0h6.1v63h-6.1v-63z m-11.4 0h6.1v63h-6.1v-63z m-11.1 0h5.9v63h-5.9v-63z m-6.3-6.4h75.7v75.7H495v-75.7z m0 0" fill="#00ACD3" p-id="4085"></path><path d="M558.4 120.1h5.9v63h-5.9v-63z m-11.5 0h6.1v63h-6.1v-63z m-11.4 0h6.1v63h-6.1v-63z m-11.7 0h6.1v63h-6.1v-63z m-11.4 0h6.1v63h-6.1v-63z m-11.1 0h5.9v63h-5.9v-63z m-6.3-6.3h75.7v75.7H495v-75.7z m0 0" fill="#20C2EF" p-id="4086"></path><path d="M645.7 294.8h5.9v63h-5.9v-63z m-11.4 0h6.1v63h-6.1v-63z m-11.7 0h6.1v63h-6.1v-63z m-11.4 0h6.1v63h-6.1v-63z m-11.5 0h6.1v63h-6.1v-63z m-11.2 0h5.9v63h-5.9v-63z m-6.2-6.3H658v75.7h-75.7v-75.7z m0 0" fill="#00ACD3" p-id="4087"></path><path d="M391.3 486.9c11.5 0 20.9 9.4 20.9 20.9 0 11.5-9.4 20.9-20.9 20.9-11.5 0-20.9-9.4-20.9-20.9 0-11.5 9.2-20.9 20.9-20.9" fill="#D4EDF1" p-id="4088"></path><path d="M391.3 492.8c1.8 0 3.7 0.4 5.3 1-1.8 1-3.1 3.1-3.1 5.3 0 3.3 2.7 6.1 6.1 6.1 2.3 0 4.3-1.2 5.3-3.3 0.8 1.8 1.2 3.7 1.2 5.7 0 8.2-6.8 14.9-14.9 14.9-8.2 0-14.9-6.8-14.9-14.9 0.1-8 6.6-14.8 15-14.8M21.9 443.5h971.4c-21.1-5.3-66.9-12.7-59.3-40.3-38.5 44.6-131.1 31.3-154.6 9.2-26 37.8-177.7 23.5-188.4-5.9-32.7 38.3-134 38.3-166.7 0-10.6 29.5-162.4 43.8-188.4 5.9-23.3 21.9-116.2 35.2-154.6-9.2 7.5 27.8-38.4 35-59.4 40.3" fill="#394D54" p-id="4089"></path><path d="M446.7 637.4c-51.8-24.5-80.2-57.9-95.9-94.3-19.2 5.5-42.3 9-69.1 10.4-10 0.6-20.7 0.8-31.9 0.8-12.9 0-26.4-0.4-40.7-1.2 47.5 47.5 105.8 83.9 213.8 84.5 8.1 0.2 15.8 0 23.8-0.2z m0 0" fill="#BFDBE0" p-id="4090"></path><path d="M370 576.7c-7.2-9.6-14.1-21.9-19.2-33.5-19.2 5.5-42.3 9-69.1 10.4 18.4 10 44.7 19.2 88.3 23.1z m0 0" fill="#D4EDF1" p-id="4091"></path></svg>