<svg width="1em" height="1em" viewBox="0 0 188 26" fill="none" xmlns="http://www.w3.org/2000/svg">
  <!-- Docker 图标 -->
  <g transform="translate(-1, -1) scale(1.15)">
    <path d="M13 6.5h2.5v2.5H13V6.5zM15.5 6.5h2.5v2.5h-2.5V6.5zM15.5 4h2.5v2.5h-2.5V4zM18 6.5h2.5v2.5H18V6.5zM10.5 6.5H13v2.5h-2.5V6.5zM10.5 9h2.5v2.5h-2.5V9zM13 9h2.5v2.5H13V9zM15.5 9h2.5v2.5h-2.5V9zM18 9h2.5v2.5H18V9zM8 9h2.5v2.5H8V9z" fill="#2496ED"/>
    <path d="M20.7 11.2c-.1-.8-.4-1.5-.9-2.1l-.3-.3-.3.3c-.5.6-.7 1.7-.6 2.5.1.4.2.8.4 1.1-.4.2-1.1.4-2 .4H3.8l-.1.4c-.1 1.2.1 2.4.5 3.5l.2.4v.1c1.4 2.3 3.8 3.3 6.5 3.3 5.1 0 9.3-2.3 11.3-7.1 1.3.1 2.6-.2 3.2-1.2l.2-.3-.2-.3c-.6-.7-1.6-.9-2.4-.7z" fill="#2496ED"/>
  </g>
  
  <!-- Docker 文字 -->
  <text x="32" y="20" font-family="Arial" font-size="20" font-weight="bold" fill="#2496ED">Docker</text>
  
  <!-- Starter 文字 -->
  <text x="105" y="20" font-family="Arial" font-size="20" font-weight="bold" fill="#2496ED">Starter</text>
</svg>