<?xml version="1.0" encoding="utf-8"?>
<svg xmlns="http://www.w3.org/2000/svg" viewBox="253 222 10 28" xmlns:bx="https://boxy-svg.com">
  <path d="M 200.13 224.157 C 198.531 223.967 196.946 225.06 196.151 225.736 C 196.97 226.515 199.614 226.633 201.062 225.416 C 201.573 226.098 201.81 227.54 201.425 229.008 L 196.717 246.946 C 198.425 247.09 200.096 246.821 201.633 246.206 L 202.111 246.004 C 202.391 245.873 202.671 245.735 202.941 245.578 C 203.184 244.844 203.386 244.162 203.534 243.54 C 203.824 242.323 203.925 241.32 203.825 240.563 C 203.812 240.451 203.909 240.326 204.046 240.288 C 204.184 240.249 204.31 240.307 204.325 240.419 C 204.335 240.518 204.344 240.62 204.354 240.733 C 204.391 241.328 204.35 241.967 204.192 242.79 C 204.204 242.746 204.186 242.842 204.186 242.842 C 204.179 242.867 204.176 242.905 204.169 242.934 C 204.106 243.255 204.013 243.611 203.921 243.963 C 203.816 244.357 203.71 244.736 203.575 245.167 L 203.578 245.181 C 205.873 243.688 207.629 241.351 208.398 238.423 C 210.025 232.222 208.295 226.966 201.92 224.637 C 202.545 222.987 202.487 221.401 201.082 220.68 C 200.02 221.823 199.87 223.304 200.13 224.157 Z M 200.13 224.157" p-id="4077" style="stroke: url(&quot;#gradient-17&quot;); paint-order: stroke; stroke-width: 0; stroke-linecap: square; stroke-linejoin: bevel; transform-origin: 202.562px 233.832px;" fill="#00AADA"/>
  <path d="M 200.129 224.156 C 198.531 223.967 196.944 225.06 196.15 225.736 C 196.969 226.515 199.613 226.633 201.062 225.415 C 201.572 226.098 201.81 227.54 201.425 229.007 C 194.829 234.287 194.36 247.994 196.994 245.885 C 199.639 245.959 201.897 245.084 203.526 243.54 C 203.817 242.322 203.917 241.319 203.817 240.562 C 203.804 240.45 203.902 240.326 204.039 240.287 C 204.176 240.248 204.302 240.306 204.317 240.419 C 204.327 240.517 204.336 240.62 204.346 240.732 C 204.382 241.329 204.348 242.024 204.184 242.844 L 204.157 242.863 C 205.939 240.751 206.742 237.691 206.13 234.186 C 205.457 230.254 203.151 226.595 200.094 224.041 C 200.111 224.086 200.125 224.118 200.129 224.156 Z M 200.129 224.156" p-id="4078" style="stroke: url(&quot;#gradient-18&quot;); paint-order: stroke; stroke-width: 0; stroke-linecap: square; stroke-linejoin: bevel; transform-origin: 200.915px 235.072px;" fill="#24B8EB"/>
  <path d="M 198.847 246.908 C 199.813 246.796 200.743 246.556 201.639 246.2 L 202.116 245.999 C 202.398 245.867 202.677 245.729 202.947 245.572 C 203.192 244.831 203.391 244.156 203.54 243.534 C 203.831 242.316 203.93 241.313 203.832 240.557 C 203.817 240.445 203.916 240.32 204.053 240.282 C 204.19 240.243 204.317 240.3 204.33 240.413 C 204.34 240.512 204.349 240.615 204.361 240.727 C 204.396 241.323 204.349 242.012 204.191 242.839 C 204.184 242.864 204.169 242.919 204.171 242.945 C 204.108 243.265 204.023 243.614 203.929 243.973 C 203.826 244.367 203.713 244.768 203.58 245.191 C 205.874 243.698 207.636 241.342 208.404 238.414 C 209.799 233.104 208.731 228.489 204.393 225.81 L 198.854 246.908 L 198.847 246.908 Z M 198.847 246.908" p-id="4079" style="stroke: url(&quot;#gradient-19&quot;); paint-order: stroke; stroke-width: 0; stroke-linecap: square; stroke-linejoin: bevel; transform-origin: 203.913px 236.359px;" fill="#008BB8"/>
  <path d="M 199.158 245.723 C 200.88 245.408 202.368 244.639 203.532 243.534 C 203.823 242.316 203.923 241.313 203.824 240.557 C 203.809 240.445 203.908 240.319 204.045 240.281 C 204.182 240.242 204.308 240.301 204.322 240.413 C 204.333 240.512 204.342 240.614 204.352 240.726 C 204.388 241.322 204.338 242.024 204.18 242.851 C 205.96 240.739 206.743 237.692 206.135 234.187 C 205.77 232.061 204.934 230.024 203.761 228.188 L 199.158 245.723 Z M 199.158 245.723" p-id="4080" style="stroke: url(&quot;#gradient-20&quot;); paint-order: stroke; stroke-width: 0; stroke-linecap: square; stroke-linejoin: bevel; transform-origin: 202.748px 236.955px;" fill="#039BC6"/>
  <path d="M 202.652 239.436 C 202.749 239.067 203.169 238.766 203.587 238.766 C 204.004 238.766 204.266 239.067 204.169 239.436 C 204.073 239.804 203.652 240.105 203.235 240.105 C 202.818 240.105 202.554 239.81 202.652 239.436" p-id="4088" style="stroke: url(&quot;#gradient-28&quot;); paint-order: stroke; stroke-width: 0; stroke-linecap: square; stroke-linejoin: bevel; transform-origin: 203.41px 239.435px;" fill="#D4EDF1"/>
  <path d="M 202.866 239.435 C 202.881 239.378 202.912 239.317 202.947 239.265 C 202.968 239.323 203.033 239.364 203.114 239.364 C 203.233 239.364 203.357 239.278 203.385 239.169 C 203.405 239.096 203.379 239.031 203.311 239 C 203.383 238.974 203.455 238.961 203.527 238.961 C 203.825 238.961 204.011 239.179 203.943 239.438 C 203.874 239.701 203.571 239.916 203.277 239.916 C 202.988 239.913 202.795 239.704 202.866 239.435 M 197.969 251.272 L 206.141 220.144 C 205.771 220.821 205.117 222.288 204.179 222.044 C 205.474 223.279 204.212 226.246 203.212 226.999 C 204.366 227.832 202.571 232.693 201.414 233.036 C 202.528 234.084 201.676 237.33 200.011 238.378 C 200.993 238.717 200.234 243.582 198.641 244.414 C 199.24 245.161 198.941 248.139 197.006 249.368 C 198.078 249.128 197.953 250.599 197.969 251.272" p-id="4089" style="stroke: url(&quot;#gradient-29&quot;); paint-order: stroke; stroke-width: 0; stroke-linecap: square; stroke-linejoin: bevel; transform-origin: 201.574px 235.708px;" fill="#394D54"/>
  <path d="M 208.58 237.661 C 207.255 239.321 205.804 240.23 204.351 240.733 C 204.388 241.349 204.321 242.089 204.147 242.948 C 204.084 243.268 204.002 243.611 203.907 243.97 C 203.799 244.383 203.67 244.816 203.522 245.274 C 205.645 243.752 207.456 241.884 208.386 238.423 C 208.462 238.164 208.52 237.917 208.58 237.661 Z M 208.58 237.661" p-id="4090" style="stroke: url(&quot;#gradient-30&quot;); paint-order: stroke; stroke-width: 0; stroke-linecap: square; stroke-linejoin: bevel; transform-origin: 206.05px 241.467px;" fill="#BFDBE0"/>
  <path d="M 205.732 240.117 C 205.323 240.349 204.819 240.569 204.354 240.733 C 204.393 241.348 204.325 242.089 204.15 242.947 C 204.668 242.357 205.223 241.515 205.732 240.117 Z M 205.732 240.117" p-id="4091" style="stroke: url(&quot;#gradient-31&quot;); paint-order: stroke; stroke-width: 0; stroke-linecap: square; stroke-linejoin: bevel; transform-origin: 204.942px 241.532px;" fill="#D4EDF1"/>
  <text style="fill: color(a98-rgb 0.285 0.288 1); font-family: &quot;ADLaM Display&quot;; font-size: 28px; stroke-linecap: square; word-spacing: 10.4px; white-space: pre; filter: url(&quot;#posterize-filter-0&quot;); stroke-width: 1;" transform="matrix(1, 0, -0.008437, 1, 212.36467, 243.951141)">ockPilot</text>
  <defs>
    <linearGradient gradientUnits="userSpaceOnUse" x1="566.156" y1="208.7" x2="566.156" y2="637.9" id="gradient-17" gradientTransform="matrix(0.008412, -0.032044, 0.036294, 0, 181.688661, 251.973921)">
      <stop offset="0" style="stop-color: #bada55"/>
      <stop offset="1" style="stop-color: #758d29"/>
    </linearGradient>
    <linearGradient gradientUnits="userSpaceOnUse" x1="530.783" y1="208.7" x2="530.783" y2="577.587" id="gradient-18" gradientTransform="matrix(0.008412, -0.032044, 0.036294, 0, 181.688655, 251.973923)">
      <stop offset="0" style="stop-color: #bada55"/>
      <stop offset="1" style="stop-color: #758d29"/>
    </linearGradient>
    <linearGradient gradientUnits="userSpaceOnUse" x1="487.3" y1="436.1" x2="487.3" y2="638" id="gradient-19" gradientTransform="matrix(0.008412, -0.032044, 0.036294, 0, 181.688649, 251.973922)">
      <stop offset="0" style="stop-color: #bada55"/>
      <stop offset="1" style="stop-color: #758d29"/>
    </linearGradient>
    <linearGradient gradientUnits="userSpaceOnUse" x1="468.7" y1="436.1" x2="468.7" y2="577.869" id="gradient-20" gradientTransform="matrix(0.008412, -0.032044, 0.036294, 0, 181.688649, 251.973927)">
      <stop offset="0" style="stop-color: #bada55"/>
      <stop offset="1" style="stop-color: #758d29"/>
    </linearGradient>
    <linearGradient gradientUnits="userSpaceOnUse" x1="391.3" y1="486.9" x2="391.3" y2="528.7" id="gradient-28" gradientTransform="matrix(0.008412, -0.032044, 0.036294, 0, 181.688655, 251.973924)">
      <stop offset="0" style="stop-color: #bada55"/>
      <stop offset="1" style="stop-color: #758d29"/>
    </linearGradient>
    <linearGradient gradientUnits="userSpaceOnUse" x1="507.6" y1="403.2" x2="507.6" y2="522.5" id="gradient-29" gradientTransform="matrix(0.008412, -0.032044, 0.036294, 0, 181.688653, 251.973921)">
      <stop offset="0" style="stop-color: #bada55"/>
      <stop offset="1" style="stop-color: #758d29"/>
    </linearGradient>
    <linearGradient gradientUnits="userSpaceOnUse" x1="327.9" y1="543.1" x2="327.9" y2="637.683" id="gradient-30" gradientTransform="matrix(0.008412, -0.032044, 0.036294, 0, 181.688654, 251.973927)">
      <stop offset="0" style="stop-color: #bada55"/>
      <stop offset="1" style="stop-color: #758d29"/>
    </linearGradient>
    <linearGradient gradientUnits="userSpaceOnUse" x1="325.85" y1="543.2" x2="325.85" y2="576.7" id="gradient-31" gradientTransform="matrix(0.008412, -0.032044, 0.036294, 0, 181.688659, 251.973921)">
      <stop offset="0" style="stop-color: #bada55"/>
      <stop offset="1" style="stop-color: #758d29"/>
    </linearGradient>
    <style bx:fonts="ADLaM Display">@import url(https://fonts.googleapis.com/css2?family=ADLaM+Display%3Aital%2Cwght%400%2C400&amp;display=swap);</style>
    <filter id="posterize-filter-0" bx:preset="posterize 1 r 3 0.9" color-interpolation-filters="sRGB" x="-50%" y="-50%" width="200%" height="200%">
      <feColorMatrix type="saturate" values="0.9"/>
      <feComponentTransfer>
        <feFuncR type="discrete" tableValues="0 0.333 0.667 1"/>
        <feFuncG type="discrete" tableValues=""/>
        <feFuncB type="discrete" tableValues=""/>
      </feComponentTransfer>
    </filter>
  </defs>
</svg>